<svg xmlns="http://www.w3.org/2000/svg" version="1.1" xmlns:xlink="http://www.w3.org/1999/xlink" viewBox="0 0 5.648212226014266 5.212148028243855"><g transform="matrix(1,0,0,1,0.8879253970710779,3.9966214608625297)"><g clip-path="url(#SvgjsClipPath1001)"><g clip-path="url(#SvgjsClipPath1000f6ffc4ad-794d-4373-ab7f-abe2e6ee0552)"><path d=" M 1.1698944377382474 -1.8862950906719567 L 1.9361339073955914 -2.6523740963132156 L 2.7022129130368504 -1.8861346266558714 L 1.9359734433795066 -1.1200556210146129 Z" fill="#a5b2ba" transform="matrix(1,0,0,1,0,0)" fill-rule="nonzero"></path></g><g clip-path="url(#SvgjsClipPath1000f6ffc4ad-794d-4373-ab7f-abe2e6ee0552)"><path d=" M 1.5395903482425486 -3.030425838998725 L 0.3954351873189276 -1.886270678075104 L 1.5181240225216548 -0.7641185010153988 L 1.0040055215062569 -0.25 L 0.9938090167888323 -0.2596598465744022 L -0.11868331369647067 -1.3721521770597058 L -0.1498094859917662 -1.4038150074980233 C -0.4063320783564429 -1.6596220556720038 -0.49040852076327557 -1.8764319454530276 -0.4020388132122642 -2.054244676841095 C -0.3556518296332675 -2.1442709615444837 -0.29452258553837013 -2.2258975486148214 -0.22118501901373788 -2.2957408412011446 L 1.0254718472271502 -3.544544340014123 Z" fill="#ffffff" transform="matrix(1,0,0,1,0,0)" fill-rule="evenodd"></path></g><g clip-path="url(#SvgjsClipPath1000f6ffc4ad-794d-4373-ab7f-abe2e6ee0552)"><path d=" M 2.3327710836295616 -3.030425838998725 L 3.4769262445531828 -1.886270678075104 L 2.3547740674934774 -0.7641185010153988 L 2.8688925685088758 -0.25 L 2.8790890732263 -0.2596598465744022 L 3.9910447455685807 -1.3721521770597058 L 4.0221709178638765 -1.4038150074980233 C 4.278693510228552 -1.6596220556720038 4.362769952635387 -1.8764319454530276 4.274400245084375 -2.054244676841095 C 4.228662151252545 -2.1441130699494892 4.168265652694758 -2.225729959892445 4.095693083457938 -2.2957408412011464 L 2.84688958464496 -3.544544340014123 Z" fill="#ffffff" transform="matrix(1,0,0,1,0,0)" fill-rule="evenodd"></path></g></g><g><path d=" M 0.0434742045942357 0.010603464535179241 L 0.16011231448120952 0.010603464535179241 L 0.16011231448120952 0.6468113366459456 L 0.3520350225679574 0.6468113366459456 L 0.3520350225679574 0.75284598199774 L 0.0434742045942357 0.75284598199774 L 0.0434742045942357 0.010603464535179241 M 0.4082271716369073 0.010603464535179241 L 0.7263311076922905 0.010603464535179241 L 0.7263311076922905 0.11663810988697365 L 0.5248652815238811 0.11663810988697365 L 0.5248652815238811 0.3128022037877933 L 0.6849775960050907 0.3128022037877933 L 0.6849775960050907 0.4188368491395877 L 0.5248652815238811 0.4188368491395877 L 0.5248652815238811 0.6468113366459456 L 0.7263311076922905 0.6468113366459456 L 0.7263311076922905 0.75284598199774 L 0.4082271716369073 0.75284598199774 L 0.4082271716369073 0.010603464535179241 M 0.8832370131956502 0.010603464535179241 L 1.0412286347698239 0.010603464535179241 L 1.1621081304708694 0.75284598199774 L 1.0454700205838956 0.75284598199774 L 1.0242630915135367 0.6054578249587458 L 1.0242630915135367 0.6075785178657817 L 0.8917197848237937 0.6075785178657817 L 0.8705128557534348 0.75284598199774 L 0.7623575174946046 0.75284598199774 L 0.8832370131956502 0.010603464535179241 M 1.0104785876178033 0.506845604781577 L 0.9585216113954242 0.13996573186436845 L 0.9564009184883883 0.13996573186436845 L 0.905504288719527 0.506845604781577 L 1.0104785876178033 0.506845604781577 M 1.218307528001904 0.010603464535179241 L 1.3911439999253288 0.010603464535179241 Q 1.481273448474354 0.010603464535179241 1.5226269601615539 0.052487149449138015 Q 1.5639804718487536 0.09437083436309679 1.5639804718487536 0.18131924355156825 L 1.5639804718487536 0.2269141410528398 Q 1.5639804718487536 0.34249190448629574 1.4876355271954615 0.3732419516383161 L 1.4876355271954615 0.37536264454535195 Q 1.5300493853361794 0.3880868019875673 1.5475451018192254 0.4273196207677312 Q 1.5650408183022715 0.46655243954789516 1.5650408183022715 0.5322939196660077 L 1.5650408183022715 0.6627165334487147 Q 1.5650408183022715 0.6945269270542531 1.5671615112093074 0.714143336444335 Q 1.5692822041163432 0.733759745834417 1.577764975744487 0.75284598199774 L 1.459006172950477 0.75284598199774 Q 1.4526440942293695 0.734820092287935 1.4505234013223336 0.7189148954851659 Q 1.4484027084152977 0.7030096986823966 1.4484027084152977 0.6616561869951968 L 1.4484027084152977 0.5259318409449 Q 1.4484027084152977 0.4750352111760387 1.4319673383857696 0.45488862855919776 Q 1.4155319683562415 0.4347420459423568 1.3752388031225595 0.4347420459423568 L 1.3349456378888778 0.4347420459423568 L 1.3349456378888778 0.75284598199774 L 1.218307528001904 0.75284598199774 L 1.218307528001904 0.010603464535179241 M 1.3773594960295954 0.32870740059056247 Q 1.4123509289956877 0.32870740059056247 1.4298466454787337 0.3106815108807574 Q 1.4473423619617798 0.29265562117095234 1.4473423619617798 0.2502417630302346 L 1.4473423619617798 0.19298305454026565 Q 1.4473423619617798 0.15268988930658378 1.4330276848392876 0.13466399959677866 Q 1.4187130077167953 0.11663810988697365 1.387962960564775 0.11663810988697365 L 1.3349456378888778 0.11663810988697365 L 1.3349456378888778 0.32870740059056247 L 1.3773594960295954 0.32870740059056247 M 1.64564319893568 0.010603464535179241 L 1.791971009521156 0.010603464535179241 L 1.905428080047576 0.45488862855919776 L 1.907548772954612 0.45488862855919776 L 1.907548772954612 0.010603464535179241 L 2.0114627253993707 0.010603464535179241 L 2.0114627253993707 0.75284598199774 L 1.8916435761518429 0.75284598199774 L 1.751677844287474 0.21100894425007066 L 1.7495571513804382 0.21100894425007066 L 1.7495571513804382 0.75284598199774 L 1.64564319893568 0.75284598199774 L 1.64564319893568 0.010603464535179241 M 2.3046221146852024 0.7157338561246119 Q 2.2606177368642077 0.6680182657163045 2.2606177368642077 0.581069856527833 L 2.2606177368642077 0.1823795900050862 Q 2.2606177368642077 0.09543118081661484 2.3046221146852024 0.04771559040830731 Q 2.348626492506197 -1.1102230246251565e-16 2.4323938623341146 -1.1102230246251565e-16 Q 2.516161232162032 -1.1102230246251565e-16 2.560165609983027 0.04771559040830731 Q 2.6041699878040214 0.09543118081661484 2.6041699878040214 0.1823795900050862 L 2.6041699878040214 0.26084522756541406 L 2.4938939566381553 0.26084522756541406 L 2.4938939566381553 0.17495716483046053 Q 2.4938939566381553 0.10603464535179419 2.435574901694668 0.10603464535179419 Q 2.3772558467511815 0.10603464535179419 2.3772558467511815 0.17495716483046053 L 2.3772558467511815 0.5895526281559766 Q 2.3772558467511815 0.657414801181125 2.435574901694668 0.657414801181125 Q 2.4938939566381553 0.657414801181125 2.4938939566381553 0.5895526281559766 L 2.4938939566381553 0.47609555762955663 L 2.6041699878040214 0.47609555762955663 L 2.6041699878040214 0.581069856527833 Q 2.6041699878040214 0.6680182657163045 2.560165609983027 0.7157338561246119 Q 2.516161232162032 0.7634494465329195 2.4323938623341146 0.7634494465329195 Q 2.348626492506197 0.7634494465329195 2.3046221146852024 0.7157338561246119 M 2.7133960274622044 0.714673509671094 Q 2.667801129960933 0.6658975728092686 2.667801129960933 0.5768284707137613 L 2.667801129960933 0.18662097581915793 Q 2.667801129960933 0.0975518737236507 2.7133960274622044 0.04877593686182524 Q 2.7589909249634763 -1.1102230246251565e-16 2.8448789876984297 -1.1102230246251565e-16 Q 2.930767050433383 -1.1102230246251565e-16 2.9763619479346546 0.04877593686182524 Q 3.0219568454359265 0.0975518737236507 3.0219568454359265 0.18662097581915793 L 3.0219568454359265 0.5768284707137613 Q 3.0219568454359265 0.6658975728092686 2.9763619479346546 0.714673509671094 Q 2.930767050433383 0.7634494465329195 2.8448789876984297 0.7634494465329195 Q 2.7589909249634763 0.7634494465329195 2.7133960274622044 0.714673509671094 M 2.9053187355489527 0.584250895888387 L 2.9053187355489527 0.17919855064453238 Q 2.9053187355489527 0.10603464535179419 2.8448789876984297 0.10603464535179419 Q 2.7844392398479068 0.10603464535179419 2.7844392398479068 0.17919855064453238 L 2.7844392398479068 0.584250895888387 Q 2.7844392398479068 0.657414801181125 2.8448789876984297 0.657414801181125 Q 2.9053187355489527 0.657414801181125 2.9053187355489527 0.584250895888387 M 3.100448370360842 0.010603464535179241 L 3.278586574551857 0.010603464535179241 Q 3.365534983740328 0.010603464535179241 3.409009188334564 0.057258708489968835 Q 3.4524833929287997 0.10391395244475832 3.4524833929287997 0.1940434009937836 L 3.4524833929287997 0.5694060455391357 Q 3.4524833929287997 0.6595354940881609 3.409009188334564 0.7061907380429505 Q 3.365534983740328 0.75284598199774 3.278586574551857 0.75284598199774 L 3.100448370360842 0.75284598199774 L 3.100448370360842 0.010603464535179241 M 3.276465881644821 0.6468113366459456 Q 3.3050952358898056 0.6468113366459456 3.3204702594658158 0.6298457933896585 Q 3.335845283041826 0.6128802501333714 3.335845283041826 0.5747077778067254 L 3.335845283041826 0.1887416687261938 Q 3.335845283041826 0.1505691963995479 3.3204702594658158 0.13360365314326073 Q 3.3050952358898056 0.11663810988697365 3.276465881644821 0.11663810988697365 L 3.217086480247816 0.11663810988697365 L 3.217086480247816 0.6468113366459456 L 3.276465881644821 0.6468113366459456 M 3.5309552434566283 0.010603464535179241 L 3.8490591795120115 0.010603464535179241 L 3.8490591795120115 0.11663810988697365 L 3.647593353343602 0.11663810988697365 L 3.647593353343602 0.3128022037877933 L 3.807705667824812 0.3128022037877933 L 3.807705667824812 0.4188368491395877 L 3.647593353343602 0.4188368491395877 L 3.647593353343602 0.6468113366459456 L 3.8490591795120115 0.6468113366459456 L 3.8490591795120115 0.75284598199774 L 3.5309552434566283 0.75284598199774 L 3.5309552434566283 0.010603464535179241" fill="#ffffff" fill-rule="nonzero"></path></g><g></g></g><defs><clipPath id="SvgjsClipPath1001"><path d=" M -0.4358482762226714 -3.544544340014123 h 4.744057984317453 v 3.294544340014123 h -4.744057984317453 Z"></path></clipPath><clipPath id="SvgjsClipPath1000f6ffc4ad-794d-4373-ab7f-abe2e6ee0552"><path d=" M -0.4358482762226714 -3.544544340014123 L 4.308209708094782 -3.544544340014123 L 4.308209708094782 -0.25 L -0.4358482762226714 -0.25 Z"></path></clipPath></defs></svg>